<?xml version="1.0" standalone="no"?>
<!DOCTYPE svg PUBLIC "-//W3C//DTD SVG 20010904//EN"
 "http://www.w3.org/TR/2001/REC-SVG-20010904/DTD/svg10.dtd">
<svg version="1.0" xmlns="http://www.w3.org/2000/svg"
 width="719.000000pt" height="1280.000000pt" viewBox="0 0 719.000000 1280.000000"
 preserveAspectRatio="xMidYMid meet">

<g transform="translate(0.000000,1280.000000) scale(0.100000,-0.100000)"
fill="#000000" stroke="none">
<path d="M0 6940 l0 -5860 43 -2 c273 -13 736 -18 742 -8 8 14 122 13 127 -1
6 -18 223 -15 234 3 7 11 143 0 159 -12 6 -4 26 -10 45 -13 19 -3 29 -3 23 0
-7 2 -13 11 -13 20 0 17 35 9 58 -13 10 -11 56 -14 204 -14 105 0 189 2 187 4
-2 2 -84 6 -182 9 -163 5 -198 9 -186 21 4 4 409 -9 534 -17 28 -2 3 -5 -55
-6 -225 -6 71 -26 480 -32 80 -1 82 -2 40 -11 -25 -5 -140 -7 -265 -3 -121 3
-449 10 -730 15 -768 15 -1302 29 -1378 36 l-67 7 0 -532 0 -531 3595 0 3595
0 0 471 0 470 -187 -5 c-218 -6 -188 8 40 19 l147 7 0 3859 c0 3833 -1 3860
-20 3879 -26 26 -26 50 0 57 18 5 20 14 20 103 0 93 -1 98 -20 93 -11 -3 -20
-13 -20 -23 0 -27 -33 -50 -72 -50 -20 0 -38 -6 -41 -12 -2 -7 -8 18 -12 55
-4 37 -5 71 -1 74 3 4 6 -10 6 -30 0 -32 2 -35 19 -29 11 4 19 9 19 12 -1 3 4
15 11 28 9 16 16 20 24 14 7 -5 29 -12 50 -14 l37 -4 0 1476 c0 811 -3 1492
-6 1513 -5 27 -11 37 -25 37 -15 0 -19 8 -20 43 -1 23 -2 56 -2 72 -1 25 3 30
26 33 35 4 35 30 0 39 l-28 7 30 7 c27 6 28 7 5 8 l-25 1 -2 271 c-1 149 -4
282 -7 295 -8 29 -40 32 -55 7 -10 -17 -10 -17 -11 0 0 16 -175 17 -3535 17
l-3535 0 0 -5860z m6525 5020 c-9 -256 -19 -467 -21 -469 -8 -8 8 676 23 1004
l8 170 3 -120 c2 -66 -4 -329 -13 -585z m-3466 -1057 c0 -65 -3 -91 -9 -77 -7
19 -17 21 -93 23 -63 1 -87 -2 -96 -13 -9 -11 -20 -12 -42 -6 -17 5 -40 5 -52
1 -12 -5 -28 -6 -34 -4 -18 6 -16 32 2 39 8 4 15 10 15 14 0 8 -99 23 -165 25
-22 0 -47 5 -55 10 -17 11 -523 20 -574 11 -28 -5 -36 -12 -37 -29 -1 -12 -5
-4 -8 18 -13 83 -69 76 570 73 313 -2 569 0 569 5 0 4 2 7 5 7 3 0 5 -44 4
-97z m68 66 c22 -9 876 -21 1178 -17 22 1 51 0 65 -1 85 -5 438 -5 505 0 44 4
168 10 275 13 107 4 216 9 242 12 41 5 47 3 53 -16 4 -12 3 -26 -2 -31 -10
-10 -250 -14 -276 -4 -10 4 -28 0 -44 -11 -26 -17 -110 -25 -243 -24 -25 1
-75 -5 -111 -11 -48 -8 -71 -9 -86 -1 -15 8 -39 8 -84 1 -86 -14 -277 -14
-312 0 -16 6 -34 8 -40 4 -7 -5 -49 -13 -95 -19 -62 -7 -87 -7 -100 2 -12 8
-53 10 -147 4 -71 -4 -157 -5 -190 -2 -96 8 -387 8 -421 0 -24 -5 -37 -2 -55
12 -28 25 -110 28 -133 4 -18 -18 -21 -40 -6 -49 6 -3 10 -18 10 -33 0 -43 14
-54 70 -58 30 -2 56 -7 59 -12 3 -5 20 -13 36 -17 l30 -8 -25 -7 c-24 -8 -24
-8 -2 -9 12 -1 22 -5 22 -11 0 -5 5 -10 11 -10 5 0 7 5 4 10 -4 6 5 10 19 10
14 0 26 5 26 10 0 6 19 10 43 11 29 0 36 3 23 8 -17 6 -17 8 -4 14 10 3 19 0
22 -9 3 -8 16 -14 28 -13 21 0 21 1 4 8 -18 7 -18 8 5 24 32 23 39 21 39 -7 0
-19 4 -22 24 -19 13 3 27 0 30 -6 4 -6 19 -11 34 -11 25 0 25 -1 6 -15 -18
-13 -16 -14 26 -14 41 0 43 1 20 11 -21 9 -22 12 -7 15 9 3 15 9 12 14 -4 5
-1 9 4 9 6 0 11 -7 11 -15 0 -10 10 -15 31 -15 17 0 28 -4 24 -10 -4 -6 9 -10
32 -9 35 1 36 2 13 10 -25 9 -18 8 153 -9 38 -4 71 -4 73 0 2 4 -13 9 -33 11
-21 2 0 4 47 5 52 1 90 -2 97 -9 7 -7 46 -11 100 -10 61 1 83 -2 73 -9 -10 -6
-213 -8 -580 -4 -311 4 -580 6 -597 6 l-33 -1 1 67 c2 60 3 63 9 27 l7 -40 2
43 c0 23 -3 42 -9 42 -11 0 -14 162 -3 173 8 9 7 9 40 -4z m-327 -194 c0 -9
-9 -15 -25 -15 -24 0 -32 10 -18 23 12 13 43 7 43 -8z m-857 -32 c23 -11 130
-9 235 3 54 6 62 5 62 -10 0 -13 12 -16 80 -16 67 0 80 3 80 16 0 14 10 15 78
9 42 -4 80 -12 83 -17 9 -14 168 -13 182 1 16 16 46 14 65 -5 11 -12 27 -15
56 -11 22 3 47 2 55 -3 24 -12 96 -16 97 -5 1 6 7 26 15 45 l14 35 5 -35 c9
-59 1 -90 -24 -90 -12 0 -27 5 -32 10 -19 19 -251 30 -669 33 l-410 2 -2 40
c-1 22 1 33 3 24 3 -9 15 -21 27 -26z m2567 -63 c12 -8 10 -10 -10 -10 -14 -1
-61 -3 -105 -5 l-80 -4 85 13 c47 7 87 14 90 14 3 1 12 -3 20 -8z m207 -6 c-3
-3 -12 -4 -19 -1 -8 3 -5 6 6 6 11 1 17 -2 13 -5z m160 -10 c-3 -3 -12 -4 -19
-1 -8 3 -5 6 6 6 11 1 17 -2 13 -5z m-2544 -21 c-7 -2 -19 -2 -25 0 -7 3 -2 5
12 5 14 0 19 -2 13 -5z m2147 -35 c0 -14 -317 -13 -354 2 -12 5 59 8 167 8
103 -1 187 -5 187 -10z m103 -5 c-13 -2 -33 -2 -45 0 -13 2 -3 4 22 4 25 0 35
-2 23 -4z m230 0 c-18 -2 -48 -2 -65 0 -18 2 -4 4 32 4 36 0 50 -2 33 -4z
m624 -9 c-3 -3 -12 -4 -19 -1 -8 3 -5 6 6 6 11 1 17 -2 13 -5z m1549 -1771
c-7 -270 -20 -467 -26 -403 l-2 25 -9 -25 c-9 -26 -3 429 7 584 6 76 16 114
33 116 2 0 1 -134 -3 -297z m86 -38 c4 -5 8 -20 8 -33 0 -18 4 -22 19 -17 16
5 20 -1 23 -32 3 -21 5 -39 4 -40 -1 0 -12 -3 -25 -5 -30 -4 -40 18 -12 27 29
9 27 35 -2 35 -13 0 -29 6 -36 13 -10 10 -12 9 -11 -3 4 -27 0 -41 -9 -36 -5
4 -11 0 -14 -6 -3 -7 -4 5 -2 27 1 22 3 50 4 62 1 16 7 21 24 20 12 0 25 -6
29 -12z m-2260 -217 c9 -7 18 -20 19 -28 4 -28 -14 -75 -38 -95 -18 -16 -21
-23 -11 -33 9 -9 8 -12 -6 -12 -10 0 -14 -5 -11 -11 4 -6 14 -8 23 -4 8 3 19
0 25 -7 5 -8 6 -3 2 16 -6 26 -5 27 11 12 11 -12 14 -26 10 -50 -6 -32 -7 -33
-59 -32 -28 0 -107 -3 -174 -7 -74 -5 -123 -4 -123 1 0 5 -18 10 -39 10 -33 1
-39 -2 -34 -16 3 -10 -9 -3 -28 15 -26 26 -31 35 -21 45 7 7 12 22 12 35 0 16
4 21 15 17 17 -7 21 26 5 42 -15 15 -16 82 -2 96 9 9 12 8 12 -5 0 -21 -1 -21
46 -1 32 13 60 15 154 10 71 -4 121 -2 130 4 21 14 63 12 82 -2z m-4572 -272
c0 -11 -19 -15 -25 -6 -3 5 1 10 9 10 9 0 16 -2 16 -4z m5274 -93 c-4 -38 -10
-72 -15 -77 -6 -6 -9 -5 -9 2 0 7 -7 12 -16 12 -10 0 -14 6 -11 15 4 8 2 17
-2 20 -5 3 -12 -2 -15 -11 -8 -20 -26 -8 -28 19 0 12 -4 2 -7 -23 l-7 -45 -8
47 c-5 26 -5 59 -2 72 6 25 21 30 99 34 l28 2 -7 -67z m1094 -8 c-2 -22 -9
-31 -25 -33 -13 -2 -23 -8 -23 -13 0 -6 -4 -7 -10 -4 -11 7 -14 108 -4 118 4
3 19 -4 36 -16 23 -17 28 -28 26 -52z m-4835 59 c3 -4 2 -14 -3 -24 -7 -14
-22 -17 -77 -16 -63 1 -68 3 -71 24 -3 21 0 22 71 22 40 0 77 -3 80 -6z m2918
-19 c3 -2 1 -33 -4 -69 -8 -53 -13 -64 -24 -55 -7 6 -13 8 -13 3 0 -9 -84 -10
-110 -1 -8 3 -24 7 -35 9 -16 3 -21 12 -23 53 -5 70 9 78 118 70 47 -4 88 -9
91 -10z m1956 -37 c-3 -8 -6 -5 -6 6 -1 11 2 17 5 13 3 -3 4 -12 1 -19z m116
12 c15 0 27 -4 27 -9 0 -5 -20 -6 -44 -4 -37 5 -45 2 -49 -13 -3 -13 -5 -9 -6
10 -1 25 2 28 22 22 12 -3 34 -6 50 -6z m-116 -82 c-3 -7 -5 -2 -5 12 0 14 2
19 5 13 2 -7 2 -19 0 -25z m-3297 -344 c0 -2 -24 -4 -52 -4 -29 0 -48 4 -41 8
12 7 93 4 93 -4z m205 5 c-22 -4 -76 -7 -120 -7 -69 1 -74 2 -35 8 25 4 79 7
120 7 65 1 69 0 35 -8z m242 -3 c-3 -7 0 -19 6 -25 9 -9 8 -11 -5 -6 -10 4
-18 10 -18 14 0 12 -155 6 -168 -6 -7 -7 -18 -13 -23 -13 -16 0 -9 19 13 34
31 22 203 23 195 2z m-657 -192 c0 -8 -4 -14 -9 -14 -11 0 -22 26 -14 34 9 9
23 -3 23 -20z m703 -298 c19 -14 23 -36 7 -36 -5 0 -10 6 -10 13 0 9 -2 9 -8
0 -10 -17 -92 -29 -92 -14 0 6 4 11 8 11 5 0 19 9 32 20 27 23 38 24 63 6z
m-270 -97 c-3 -11 -17 -28 -32 -37 -14 -9 -30 -22 -34 -29 -4 -7 -20 -13 -35
-13 -22 0 -28 5 -30 23 -1 19 9 28 51 49 65 33 87 35 80 7z m-699 -133 c-6
-36 4 -79 38 -155 17 -37 18 -48 8 -70 -7 -14 -14 -66 -16 -116 -2 -49 -9
-118 -16 -152 -11 -61 -12 -62 -31 -45 -11 9 -28 31 -38 47 -11 17 -19 24 -19
18 0 -28 -27 -10 -100 67 -48 50 -84 80 -98 80 -42 0 -30 19 43 66 66 43 83
60 129 134 30 47 62 102 73 122 23 47 36 49 27 4z m336 -115 c0 -3 -16 -23
-36 -43 -29 -31 -42 -38 -73 -38 -29 0 -40 5 -50 23 -11 21 -9 27 22 60 19 21
43 37 55 37 13 0 22 6 22 15 0 9 11 4 30 -17 17 -17 30 -34 30 -37z m640 -90
c25 -5 38 -9 29 -10 -8 0 -34 -10 -57 -21 -45 -22 -62 -25 -62 -11 0 5 -14 14
-31 20 -71 25 15 40 121 22z m-305 -57 c8 -9 24 -33 35 -54 11 -21 24 -41 30
-45 23 -14 7 -22 -35 -17 -30 3 -51 0 -62 -9 -15 -12 -16 -12 -10 5 4 10 2 34
-5 52 -9 25 -9 39 0 59 13 29 24 31 47 9z m450 -24 c3 -5 1 -10 -4 -10 -6 0
-11 5 -11 10 0 6 2 10 4 10 3 0 8 -4 11 -10z m-525 -9 c0 -5 -12 -11 -27 -14
-16 -2 -50 -12 -76 -20 -65 -21 -57 1 9 24 56 19 94 23 94 10z m-100 -71 c0
-13 -14 -25 -46 -40 -26 -11 -50 -20 -55 -20 -19 0 -8 21 15 30 13 5 27 14 31
19 3 6 15 11 26 11 10 0 19 5 19 10 0 6 2 10 5 10 3 0 5 -9 5 -20z m11 -140
c14 0 10 -37 -5 -43 -8 -3 -18 5 -25 19 -15 33 -14 37 5 30 9 -3 20 -6 25 -6z
m-1470 -242 c30 -9 48 -8 78 2 32 10 49 10 92 0 44 -11 63 -24 119 -79 58 -58
76 -87 138 -214 68 -139 85 -186 62 -172 -16 10 -12 -7 10 -40 20 -30 28 -105
11 -105 -12 0 -27 34 -30 65 -1 18 -32 15 -56 -5 -16 -13 -15 -16 8 -35 27
-22 67 -83 67 -102 0 -42 -66 21 -140 133 -32 48 -129 155 -177 195 -18 15
-103 35 -103 24 0 -2 19 -14 41 -26 23 -11 52 -31 64 -42 12 -12 43 -39 68
-59 25 -21 53 -53 64 -72 10 -19 46 -76 81 -127 34 -50 62 -99 62 -108 0 -9
-10 -29 -23 -45 -29 -36 -55 -30 -91 23 -36 51 -108 89 -185 97 -34 4 -61 11
-61 15 0 5 -15 8 -32 8 l-33 -1 30 -8 c25 -6 22 -8 -24 -9 -30 0 -51 -4 -47
-8 8 -8 15 -9 99 -17 115 -12 181 -39 232 -96 11 -12 34 -28 52 -35 18 -8 33
-18 33 -23 0 -4 -16 -23 -35 -42 -19 -19 -35 -43 -35 -55 0 -11 -18 -43 -41
-70 -66 -82 -259 -265 -302 -286 -21 -11 -59 -39 -83 -62 -77 -75 -126 -117
-135 -117 -5 0 -9 -6 -9 -13 0 -7 -14 -26 -31 -43 -48 -44 -113 -193 -130
-294 -16 -98 -16 -352 0 -420 6 -26 7 -85 4 -138 -7 -103 -14 -103 -40 -3 -8
31 -30 84 -49 118 -34 61 -34 63 -35 190 -1 70 3 155 9 188 6 33 11 83 11 110
0 31 12 82 32 135 27 72 33 105 39 215 12 186 31 231 154 364 l41 44 -40 -23
c-22 -13 -49 -30 -60 -37 -24 -16 -49 -17 -39 -1 5 8 2 9 -11 4 -11 -4 -38
-10 -62 -13 -38 -5 -44 -3 -51 17 -5 12 -5 41 -1 64 31 183 32 194 21 252 -9
43 -9 60 -1 65 10 6 15 79 9 149 -1 21 -5 17 -18 -20 -26 -71 -27 -15 -2 105
12 55 24 115 27 134 4 25 30 59 102 135 53 55 117 123 141 150 68 73 124 91
211 64z m1929 -105 c0 -11 -5 -10 -24 4 -15 12 -20 20 -13 25 14 8 37 -9 37
-29z m-37 -9 c42 -47 87 -124 87 -149 0 -11 13 -47 28 -80 34 -71 67 -204 82
-330 6 -49 15 -121 19 -160 5 -38 9 -86 8 -105 0 -19 3 -87 6 -150 3 -63 2
-122 -3 -130 -5 -8 -10 -12 -12 -10 -2 3 -16 24 -31 48 -15 23 -32 42 -37 42
-32 0 -37 -189 -9 -373 12 -80 11 -96 -4 -154 -26 -101 -97 -213 -97 -155 0 9
-3 41 -6 70 -6 45 -5 52 11 52 10 0 15 -5 12 -12 -7 -19 11 -60 23 -53 23 14
1 105 -25 105 -18 0 -23 71 -22 290 l2 195 28 40 c25 34 28 46 23 83 -9 70
-46 215 -62 242 -13 23 -49 158 -60 225 -3 17 -10 39 -15 50 -5 11 -18 45 -28
75 -10 30 -22 63 -26 73 -13 31 32 20 90 -23 29 -22 56 -44 60 -50 18 -28 65
0 52 33 -2 6 -6 17 -8 22 -7 24 -96 119 -125 133 -25 13 -56 74 -49 94 3 8 2
33 -4 56 l-9 42 34 0 c27 0 42 -8 67 -36z m-353 -93 c0 -5 -9 -19 -20 -32 -21
-26 -27 -10 -8 21 13 21 28 27 28 11z m1510 -27 l85 -13 -92 5 c-51 2 -107 11
-125 20 l-33 15 40 -7 c22 -3 78 -12 125 -20z m-566 -109 c12 -11 34 -29 49
-40 38 -27 52 -56 72 -149 8 -43 21 -88 27 -100 16 -29 11 -249 -7 -318 -11
-44 -59 -128 -112 -197 -12 -16 -11 18 3 80 57 258 59 269 45 269 -6 0 -11 -6
-11 -14 0 -7 -11 -38 -24 -67 l-24 -54 -1 137 c0 75 -3 149 -7 164 -7 25 -5
27 20 20 19 -5 26 -3 21 4 -4 6 1 18 11 25 17 13 15 13 -16 5 -49 -14 -50 -13
-50 18 0 34 -31 150 -59 222 -28 73 -27 79 10 44 18 -16 41 -38 53 -49z
m-1014 35 c0 -24 20 -36 31 -19 6 10 9 4 9 -18 0 -18 4 -33 9 -33 10 0 22 -24
27 -55 8 -49 33 -165 48 -220 9 -33 21 -96 26 -140 4 -44 18 -143 30 -220 23
-144 36 -420 20 -410 -16 10 -89 170 -170 375 -36 91 -48 118 -126 288 -19 41
-34 76 -34 79 0 3 -16 41 -36 86 -20 45 -38 98 -40 119 -4 31 -1 37 18 44 33
10 141 98 157 128 15 28 31 26 31 -4z m27 8 c-3 -8 -6 -5 -6 6 -1 11 2 17 5
13 3 -3 4 -12 1 -19z m270 -17 c-4 -1 -1 -12 9 -22 10 -11 12 -19 6 -19 -12 0
-42 50 -42 70 0 5 8 2 18 -7 10 -10 14 -20 9 -22z m-717 -10 c0 -19 -35 -39
-47 -27 -7 7 26 46 39 46 4 0 8 -9 8 -19z m-160 -53 c0 -5 10 -6 22 -2 20 6
21 5 10 -9 -9 -10 -10 -17 -2 -22 13 -8 13 -52 0 -60 -5 -3 -10 -13 -10 -21 0
-8 4 -13 10 -9 5 3 17 -9 26 -26 18 -35 14 -41 -38 -70 -22 -12 -22 -11 -3 34
18 43 8 57 -14 18 -40 -70 -57 -88 -95 -104 -95 -39 -166 -4 -166 82 1 59 13
80 75 129 56 44 111 60 144 42 20 -10 21 -9 15 15 -5 20 -3 24 10 19 9 -3 16
-10 16 -16z m-227 -68 c-18 -31 -33 -39 -33 -18 0 14 30 48 42 48 5 0 1 -13
-9 -30z m343 -172 c4 -6 -1 -18 -12 -27 -11 -9 -37 -37 -58 -63 -27 -34 -46
-48 -63 -48 -30 0 -26 20 6 36 34 17 71 56 71 74 0 32 41 53 56 28z m-66 -18
c0 -5 -8 -10 -17 -10 -15 0 -16 2 -3 10 19 12 20 12 20 0z m-1421 -27 c0 -25
-1 -26 -9 -8 -12 27 -12 35 0 35 6 0 10 -12 9 -27z m1341 20 c0 -10 -32 -43
-42 -43 -5 0 -1 11 8 25 15 23 34 33 34 18z m179 -39 c-9 -11 -15 -12 -23 -4
-8 8 -7 13 4 20 20 12 33 1 19 -16z m-72 -52 c-10 -10 -17 -26 -17 -35 0 -16
-18 -33 -26 -24 -6 5 13 41 35 70 8 9 16 15 19 12 3 -3 -2 -13 -11 -23z m63
-32 c-6 -11 -16 -20 -22 -20 -6 0 -3 9 7 20 10 11 20 20 22 20 2 0 -1 -9 -7
-20z m1457 -242 c-3 -8 -6 -5 -6 6 -1 11 2 17 5 13 3 -3 4 -12 1 -19z m117
-60 c-17 -92 -51 -187 -78 -213 -20 -20 -46 -26 -46 -10 0 8 6 15 13 15 8 1 7
5 -4 13 -14 11 -13 15 8 37 13 14 42 62 64 108 22 45 42 82 44 82 3 0 2 -15
-1 -32z m-3045 -155 c0 -25 -1 -26 -9 -8 -12 27 -12 35 0 35 6 0 10 -12 9 -27z
m2535 -58 c-1 -57 -28 -55 -32 3 -3 38 -1 43 15 40 14 -3 18 -12 17 -43z m364
-10 c-3 -3 -9 2 -12 12 -6 14 -5 15 5 6 7 -7 10 -15 7 -18z m-21 -47 c-3 -7
-5 -2 -5 12 0 14 2 19 5 13 2 -7 2 -19 0 -25z m-390 -60 c-3 -7 -5 -2 -5 12 0
14 2 19 5 13 2 -7 2 -19 0 -25z m340 -375 c-3 -10 -5 -4 -5 12 0 17 2 24 5 18
2 -7 2 -21 0 -30z m-10 -110 c-2 -16 -4 -3 -4 27 0 30 2 43 4 28 2 -16 2 -40
0 -55z m102 -65 c41 -122 50 -197 27 -229 -9 -13 -16 -30 -16 -39 0 -19 -37
-44 -45 -30 -3 6 -15 10 -26 10 -24 0 -24 8 -1 34 46 51 80 193 52 211 -6 3
-10 -4 -10 -17 0 -13 -7 -32 -15 -42 -15 -20 -15 -20 -17 0 -4 53 -2 132 3
128 4 -2 4 18 2 44 -8 68 8 44 46 -70z m-112 -50 c-3 -7 -5 -2 -5 12 0 14 2
19 5 13 2 -7 2 -19 0 -25z m303 -268 c0 -5 -4 -10 -10 -10 -5 0 -10 5 -10 10
0 6 5 10 10 10 6 0 10 -4 10 -10z m285 -21 c28 -7 42 -14 32 -17 -10 -2 -41 3
-70 12 -29 8 -61 17 -72 20 -11 3 -2 3 20 1 22 -2 63 -9 90 -16z m-445 -97 c0
-9 -5 -10 -17 -3 -10 5 -26 5 -40 0 -13 -5 -30 -6 -39 -2 -13 5 -10 12 19 38
19 17 38 43 42 56 7 21 10 19 21 -26 8 -27 14 -56 14 -63z m631 62 c-24 -11
-46 -13 -75 -7 l-41 7 45 7 c25 3 59 6 75 7 l30 0 -34 -14z m116 -10 c-3 -3
-12 -4 -19 -1 -8 3 -5 6 6 6 11 1 17 -2 13 -5z m61 -1 c-10 -2 -26 -2 -35 0
-10 3 -2 5 17 5 19 0 27 -2 18 -5z m-817 -131 c27 -24 31 -32 24 -60 -3 -18
-13 -39 -22 -47 -13 -13 -12 -15 3 -15 24 0 54 -29 54 -52 0 -15 -5 -18 -21
-13 -11 4 -71 8 -132 8 l-112 2 -3 28 c-3 21 1 27 15 27 29 0 203 62 203 72 0
6 -39 8 -100 5 l-100 -4 1 31 c0 17 3 25 6 19 7 -18 33 -16 79 7 53 26 68 25
105 -8z m35 -224 c-9 -5 -14 -13 -11 -17 2 -5 -31 -11 -75 -15 -44 -3 -93 -9
-110 -12 -17 -4 -30 -2 -30 3 0 6 39 18 88 28 48 9 96 20 107 25 28 10 53 0
31 -12z m1020 -1027 c12 -34 26 -67 33 -74 12 -12 15 -47 5 -47 -6 0 -40 35
-71 74 -8 9 -10 27 -6 46 4 21 2 35 -7 40 -15 9 -3 33 13 27 7 -2 22 -31 33
-66z m83 -11 c0 -10 -3 -8 -9 5 -12 27 -12 43 0 25 5 -8 9 -22 9 -30z m73
-185 c9 -20 9 -20 -6 -1 -9 11 -16 27 -15 35 0 14 1 14 6 1 3 -8 10 -24 15
-35z m163 -171 c-39 -11 -55 -10 -55 4 0 4 21 7 48 8 l47 0 -40 -12z m-4184
-131 c-8 -15 -10 -15 -11 -2 0 17 10 32 18 25 2 -3 -1 -13 -7 -23z m4569 -2
c32 -8 33 -10 13 -16 -13 -4 -23 -11 -23 -16 0 -5 -7 -9 -16 -9 -8 0 -13 4 -9
9 3 5 -7 11 -22 13 -18 2 -29 10 -31 22 -3 16 0 18 25 12 15 -4 44 -11 63 -15z
m-1020 -6 c0 -8 -4 -15 -10 -15 -5 0 -10 7 -10 15 0 8 5 15 10 15 6 0 10 -7
10 -15z m930 -15 c0 -5 -6 -10 -14 -10 -8 0 -18 5 -21 10 -3 6 3 10 14 10 12
0 21 -4 21 -10z m-4566 -24 c-6 -16 -24 -23 -24 -8 0 10 22 33 27 28 2 -2 1
-11 -3 -20z m4401 14 c7 -12 -58 -12 -95 0 -19 6 -12 8 32 9 31 1 60 -3 63 -9z
m82 4 c-3 -3 -12 -4 -19 -1 -8 3 -5 6 6 6 11 1 17 -2 13 -5z m-114 -64 c8 0
18 6 20 13 4 9 8 9 14 1 4 -7 17 -14 28 -17 15 -3 12 -5 -10 -6 -16 -1 -47 -8
-67 -15 -31 -11 -38 -11 -42 1 -9 23 -7 45 4 38 6 -3 10 0 10 7 1 9 5 7 14 -4
7 -10 20 -18 29 -18z m-4349 -43 c-7 -21 -8 -20 -14 8 -8 36 -1 54 12 31 5 -9
6 -26 2 -39z m4656 43 c0 -5 13 -10 28 -10 15 0 33 -5 40 -12 9 -9 12 -9 12 3
1 7 9 -2 20 -21 25 -45 25 -58 1 -29 l-20 24 6 -22 c3 -14 1 -23 -6 -23 -6 0
-11 8 -12 18 0 14 -2 14 -9 -3 -5 -11 -9 -14 -9 -7 -1 7 -16 12 -41 12 -33 0
-40 3 -40 20 0 18 -7 20 -80 20 -64 0 -80 3 -80 15 0 12 12 13 64 8 42 -4 66
-2 70 6 9 14 56 15 56 1z m-244 -68 c3 -9 22 -27 43 -39 32 -19 39 -29 45 -65
4 -23 12 -46 19 -51 7 -5 -6 -7 -32 -4 -35 4 -49 13 -73 42 -17 20 -36 34 -44
31 -16 -6 -44 30 -44 56 0 10 -4 18 -10 18 -5 0 -10 7 -10 15 0 24 100 21 106
-3z m214 -52 c0 -5 -21 -10 -46 -10 -27 0 -43 4 -39 10 3 6 24 10 46 10 21 0
39 -4 39 -10z m-250 -60 c0 -5 -4 -10 -10 -10 -5 0 -10 5 -10 10 0 6 5 10 10
10 6 0 10 -4 10 -10z m348 -1 c-2 -6 -7 -10 -11 -10 -4 1 -15 1 -24 2 -15 0
-15 2 2 9 28 12 37 12 33 -1z m42 -5 c0 -17 -22 -14 -28 4 -2 7 3 12 12 12 9
0 16 -7 16 -16z m-5745 -64 c-3 -5 -12 -10 -18 -10 -7 0 -6 4 3 10 19 12 23
12 15 0z m4525 -516 c0 -2 -9 -4 -20 -4 -11 0 -20 4 -20 9 0 5 9 7 20 4 11 -3
20 -7 20 -9z m453 -105 l22 -21 -40 5 c-116 16 -150 37 -60 37 43 0 61 -5 78
-21z m-3426 -85 c-3 -3 -12 -4 -19 -1 -8 3 -5 6 6 6 11 1 17 -2 13 -5z m780
-20 c-3 -3 -12 -4 -19 -1 -8 3 -5 6 6 6 11 1 17 -2 13 -5z m239 -9 c14 -13 11
-15 -27 -15 -40 0 -41 1 -23 15 24 18 32 18 50 0z m122 8 c-10 -2 -26 -2 -35
0 -10 3 -2 5 17 5 19 0 27 -2 18 -5z m-469 -19 c2 -2 -41 -4 -97 -4 -67 0
-102 4 -102 11 0 8 29 9 98 4 53 -4 99 -9 101 -11z m205 -11 c-41 -10 -78 -13
-108 -9 -78 12 -40 26 67 25 l102 -1 -61 -15z m1986 7 c34 -23 -20 -30 -245
-31 -197 0 -226 -2 -200 -14 23 -10 198 -14 770 -18 862 -7 747 -5 741 -15 -7
-12 -1788 -14 -2341 -2 -420 8 -1714 28 -2060 31 -55 1 -109 5 -120 10 -11 5
95 6 245 2 160 -3 279 -2 300 4 21 6 78 7 141 2 59 -4 504 -10 990 -13 486 -3
952 -9 1035 -12 149 -6 234 0 234 16 0 5 -253 10 -562 12 -310 2 -571 7 -580
12 -10 4 -15 12 -12 17 7 12 1645 11 1664 -1z m940 -1 c358 -1 554 -5 505 -10
-113 -11 -1397 -20 -1414 -10 -7 5 -10 14 -6 20 5 9 52 10 168 7 89 -3 425 -6
747 -7z m-4762 -36 c-21 -2 -55 -2 -75 0 -21 2 -4 4 37 4 41 0 58 -2 38 -4z
m245 0 c-18 -2 -48 -2 -65 0 -18 2 -4 4 32 4 36 0 50 -2 33 -4z"/>
<path d="M2947 10953 c-9 -2 -15 -9 -12 -14 9 -14 22 -11 29 6 3 8 4 14 3 14
-1 -1 -10 -3 -20 -6z"/>
<path d="M3197 10713 c-12 -12 -7 -23 11 -23 14 0 14 2 3 9 -11 7 -10 10 5 14
14 3 15 5 3 6 -9 0 -19 -2 -22 -6z"/>
<path d="M4048 10673 c6 -2 18 -2 25 0 6 3 1 5 -13 5 -14 0 -19 -2 -12 -5z"/>
<path d="M1915 5560 c-3 -5 -21 -10 -38 -10 -18 0 -52 -9 -76 -20 -24 -11 -55
-20 -70 -21 -20 0 -22 -2 -8 -7 14 -6 11 -11 -18 -26 -19 -11 -35 -23 -35 -28
0 -12 7 -10 34 7 12 8 36 17 52 18 16 2 43 11 59 19 42 22 166 48 193 41 31
-8 27 9 -5 25 -32 15 -79 16 -88 2z"/>
<path d="M2060 5530 c0 -5 4 -10 9 -10 6 0 13 5 16 10 3 6 -1 10 -9 10 -9 0
-16 -4 -16 -10z"/>
<path d="M1503 5354 c-17 -9 -34 -21 -36 -28 -6 -15 26 -14 45 1 7 6 26 15 42
19 20 5 24 9 14 15 -18 12 -28 11 -65 -7z"/>
<path d="M1455 5280 c-3 -5 3 -10 15 -10 12 0 18 5 15 10 -3 6 -10 10 -15 10
-5 0 -12 -4 -15 -10z"/>
<path d="M1550 5280 c-9 -6 -10 -10 -3 -10 6 0 15 5 18 10 8 12 4 12 -15 0z"/>
<path d="M1888 5266 c-67 -26 -147 -70 -142 -78 3 -4 18 1 33 12 41 29 77 41
156 55 l70 11 -47 5 c-26 2 -58 0 -70 -5z"/>
<path d="M1539 5013 c0 -5 -2 -21 -4 -38 -2 -16 -6 -41 -9 -55 -5 -18 -2 -16
9 8 8 17 24 41 35 52 11 11 20 25 20 30 0 11 -50 14 -51 3z"/>
<path d="M1599 4779 l-24 -20 30 17 c39 24 40 24 28 24 -6 0 -21 -9 -34 -21z"/>
<path d="M1459 4563 c-13 -16 -12 -17 4 -4 9 7 17 15 17 17 0 8 -8 3 -21 -13z"/>
<path d="M3930 5210 c0 -5 5 -10 10 -10 6 0 10 5 10 10 0 6 -4 10 -10 10 -5 0
-10 -4 -10 -10z"/>
<path d="M4480 5670 c0 -5 7 -7 15 -4 8 4 15 8 15 10 0 2 -7 4 -15 4 -8 0 -15
-4 -15 -10z"/>
<path d="M4490 5590 c0 -18 2 -19 20 -8 11 7 20 16 20 20 0 5 -9 8 -20 8 -13
0 -20 -7 -20 -20z"/>
<path d="M3243 5843 c38 -66 67 -91 67 -60 0 13 -73 97 -84 97 -3 0 5 -17 17
-37z"/>
<path d="M3505 5150 c-3 -5 1 -10 9 -10 9 0 16 5 16 10 0 6 -4 10 -9 10 -6 0
-13 -4 -16 -10z"/>
<path d="M2665 5800 c3 -5 8 -10 11 -10 2 0 4 5 4 10 0 6 -5 10 -11 10 -5 0
-7 -4 -4 -10z"/>
<path d="M4361 4354 c0 -11 3 -14 6 -6 3 7 2 16 -1 19 -3 4 -6 -2 -5 -13z"/>
<path d="M833 1063 c9 -2 23 -2 30 0 6 3 -1 5 -18 5 -16 0 -22 -2 -12 -5z"/>
</g>
</svg>
